<mxfile host="app.diagrams.net" modified="2020-11-11T09:27:03.427Z" agent="5.0 (Windows)" etag="NdvmqQqD5-QliQu9FXg3" version="13.9.5" type="github">
  <diagram id="kgpKYQtTHZ0yAKxKKP6v" name="Page-1">
    <mxGraphModel dx="782" dy="404" grid="1" gridSize="10" guides="1" tooltips="1" connect="1" arrows="1" fold="1" page="1" pageScale="1" pageWidth="827" pageHeight="1169" math="0" shadow="0">
      <root>
        <mxCell id="0" />
        <mxCell id="1" parent="0" />
        <mxCell id="M-NfdtJfYTyeRfFp8kIu-12" value="&lt;b style=&quot;font-size: 10px;&quot;&gt;interaction &lt;/b&gt;View Catalog" style="shape=umlFrame;whiteSpace=wrap;html=1;gradientColor=#ffffff;align=center;width=170;height=20;fontFamily=Lucida Console;fontSize=10;" vertex="1" parent="1">
          <mxGeometry x="90" y="20" width="350" height="330" as="geometry" />
        </mxCell>
        <mxCell id="3nuBFxr9cyL0pnOWT2aG-1" value=":User" style="shape=umlLifeline;perimeter=lifelinePerimeter;container=1;collapsible=0;recursiveResize=0;rounded=0;shadow=0;strokeWidth=1;fillColor=#d5e8d4;strokeColor=#82b366;gradientColor=#ffffff;gradientDirection=south;fontStyle=1;align=center;fontFamily=Lucida Console;fontSize=11;" parent="1" vertex="1">
          <mxGeometry x="120" y="80" width="100" height="250" as="geometry" />
        </mxCell>
        <mxCell id="3nuBFxr9cyL0pnOWT2aG-2" value="" style="points=[];perimeter=orthogonalPerimeter;rounded=0;shadow=0;strokeWidth=1;fillColor=#d5e8d4;strokeColor=#82b366;gradientColor=#ffffff;gradientDirection=south;fontFamily=Lucida Console;fontSize=10;" parent="3nuBFxr9cyL0pnOWT2aG-1" vertex="1">
          <mxGeometry x="45" y="70" width="10" height="130" as="geometry" />
        </mxCell>
        <mxCell id="M-NfdtJfYTyeRfFp8kIu-7" value="" style="shape=umlActor;verticalLabelPosition=bottom;verticalAlign=top;html=1;gradientColor=#ffffff;fontFamily=Lucida Console;fontSize=10;" vertex="1" parent="3nuBFxr9cyL0pnOWT2aG-1">
          <mxGeometry x="70" y="10" width="10" height="20" as="geometry" />
        </mxCell>
        <mxCell id="3nuBFxr9cyL0pnOWT2aG-5" value="catalog : Catalog" style="shape=umlLifeline;perimeter=lifelinePerimeter;container=1;collapsible=0;recursiveResize=0;rounded=0;shadow=0;strokeWidth=1;fillColor=#d5e8d4;strokeColor=#82b366;gradientColor=#ffffff;gradientDirection=south;fontStyle=1;fontFamily=Lucida Console;fontSize=11;" parent="1" vertex="1">
          <mxGeometry x="290" y="80" width="130" height="250" as="geometry" />
        </mxCell>
        <mxCell id="3nuBFxr9cyL0pnOWT2aG-6" value="" style="points=[];perimeter=orthogonalPerimeter;rounded=0;shadow=0;strokeWidth=1;fillColor=#d5e8d4;strokeColor=#82b366;gradientColor=#ffffff;fontFamily=Lucida Console;fontSize=10;" parent="3nuBFxr9cyL0pnOWT2aG-5" vertex="1">
          <mxGeometry x="60" y="80" width="10" height="120" as="geometry" />
        </mxCell>
        <mxCell id="3nuBFxr9cyL0pnOWT2aG-8" value="1: getAllWineProducts()" style="verticalAlign=bottom;endArrow=block;entryX=0;entryY=0;shadow=0;strokeWidth=1;fontFamily=Lucida Console;fontSize=11;" parent="1" source="3nuBFxr9cyL0pnOWT2aG-2" target="3nuBFxr9cyL0pnOWT2aG-6" edge="1">
          <mxGeometry relative="1" as="geometry">
            <mxPoint x="275" y="160" as="sourcePoint" />
          </mxGeometry>
        </mxCell>
        <mxCell id="M-NfdtJfYTyeRfFp8kIu-5" value="2: wineProducts" style="verticalAlign=bottom;endArrow=open;dashed=1;endSize=8;exitX=0;exitY=0.95;shadow=0;strokeWidth=1;fontFamily=Lucida Console;fontSize=11;" edge="1" parent="1">
          <mxGeometry relative="1" as="geometry">
            <mxPoint x="175" y="209.99999999999977" as="targetPoint" />
            <mxPoint x="345" y="209.99999999999977" as="sourcePoint" />
          </mxGeometry>
        </mxCell>
        <mxCell id="M-NfdtJfYTyeRfFp8kIu-11" value="" style="verticalLabelPosition=bottom;verticalAlign=top;html=1;shape=mxgraph.basic.sun;align=center;fillColor=#fff2cc;strokeColor=#d6b656;gradientColor=#ffffff;fontFamily=Lucida Console;fontSize=10;" vertex="1" parent="1">
          <mxGeometry x="230" y="60" width="50" height="50" as="geometry" />
        </mxCell>
      </root>
    </mxGraphModel>
  </diagram>
</mxfile>
